<?xml version="1.0" encoding="UTF-8"?>
<svg xmlns="http://www.w3.org/2000/svg" xmlns:xlink="http://www.w3.org/1999/xlink" width="48px" height="48px" viewBox="0 0 48 48" version="1.1">
<g id="surface1">
<path style=" stroke:none;fill-rule:nonzero;fill:rgb(21.176471%,40.392157%,58.823529%);fill-opacity:1;" d="M 48 24 C 48 37.253906 37.253906 48 24 48 C 10.746094 48 0 37.253906 0 24 C 0 10.746094 10.746094 0 24 0 C 37.253906 0 48 10.746094 48 24 Z M 48 24 "/>
<path style=" stroke:none;fill-rule:nonzero;fill:rgb(15.294118%,23.137255%,47.843137%);fill-opacity:1;" d="M 13.335938 34.050781 L 27.089844 47.800781 C 37.867188 46.417969 46.40625 37.886719 47.800781 27.109375 L 35.035156 14.347656 Z M 13.335938 34.050781 "/>
<path style=" stroke:none;fill-rule:nonzero;fill:rgb(100%,32.941176%,9.803922%);fill-opacity:1;" d="M 38.667969 24 C 38.667969 32.101562 32.101562 38.667969 24 38.667969 C 15.898438 38.667969 9.332031 32.101562 9.332031 24 C 9.332031 15.898438 15.898438 9.332031 24 9.332031 C 32.101562 9.332031 38.667969 15.898438 38.667969 24 Z M 38.667969 24 "/>
<path style=" stroke:none;fill-rule:nonzero;fill:rgb(87.843137%,22.745098%,0%);fill-opacity:1;" d="M 9.332031 24.054688 C 9.363281 32.128906 15.917969 38.667969 24 38.667969 C 32.082031 38.667969 38.636719 32.128906 38.667969 24.054688 Z M 9.332031 24.054688 "/>
<path style=" stroke:none;fill-rule:nonzero;fill:rgb(100%,92.941176%,70.980392%);fill-opacity:1;" d="M 21.769531 23.511719 L 26.804688 18.472656 C 27.417969 17.863281 27.417969 16.871094 26.804688 16.261719 C 26.195312 15.652344 25.207031 15.652344 24.59375 16.261719 L 17.960938 22.894531 C 17.351562 23.503906 17.351562 24.496094 17.960938 25.105469 L 24.59375 31.738281 C 25.207031 32.351562 26.195312 32.351562 26.804688 31.738281 C 27.417969 31.128906 27.417969 30.140625 26.804688 29.527344 L 21.769531 24.488281 C 21.496094 24.21875 21.496094 23.78125 21.769531 23.511719 Z M 21.769531 23.511719 "/>
<path style=" stroke:none;fill-rule:nonzero;fill:rgb(99.607843%,88.235294%,52.941176%);fill-opacity:1;" d="M 21.769531 24.488281 C 21.644531 24.367188 21.582031 24.210938 21.570312 24.054688 L 17.507812 24.054688 C 17.519531 24.4375 17.667969 24.8125 17.960938 25.105469 L 24.59375 31.738281 C 25.207031 32.347656 26.195312 32.347656 26.804688 31.738281 C 27.417969 31.128906 27.417969 30.136719 26.804688 29.527344 Z M 21.769531 24.488281 "/>
</g>
</svg>
