<?xml version="1.0" encoding="UTF-8"?>
<svg xmlns="http://www.w3.org/2000/svg" xmlns:xlink="http://www.w3.org/1999/xlink" width="48px" height="48px" viewBox="0 0 48 48" version="1.1">
<g id="surface1">
<path style=" stroke:none;fill-rule:nonzero;fill:rgb(90.588235%,61.960784%,17.647059%);fill-opacity:1;" d="M 48 24 C 48 37.253906 37.253906 48 24 48 C 10.746094 48 0 37.253906 0 24 C 0 10.746094 10.746094 0 24 0 C 37.253906 0 48 10.746094 48 24 Z M 48 24 "/>
<path style=" stroke:none;fill-rule:nonzero;fill:rgb(100%,100%,100%);fill-opacity:1;" d="M 21.054688 32.320312 C 19.660156 32.320312 18.261719 32.320312 16.867188 32.320312 C 18.503906 30.683594 20.136719 29.050781 21.773438 27.414062 C 22.808594 26.378906 21.195312 24.777344 20.15625 25.816406 C 18.523438 27.449219 16.890625 29.082031 15.257812 30.714844 C 15.257812 29.324219 15.257812 27.933594 15.257812 26.542969 C 15.257812 25.074219 12.984375 25.058594 12.984375 26.523438 C 12.984375 28.832031 12.984375 31.140625 12.984375 33.449219 C 12.984375 34.066406 13.492188 34.59375 14.113281 34.59375 C 16.421875 34.59375 18.730469 34.59375 21.039062 34.59375 C 22.507812 34.59375 22.519531 32.320312 21.054688 32.320312 Z M 21.054688 32.320312 "/>
<path style=" stroke:none;fill-rule:nonzero;fill:rgb(100%,100%,100%);fill-opacity:1;" d="M 34.082031 12.367188 C 31.773438 12.367188 29.464844 12.367188 27.160156 12.367188 C 25.691406 12.367188 25.675781 14.640625 27.140625 14.640625 C 28.539062 14.640625 29.933594 14.640625 31.328125 14.640625 C 29.695312 16.277344 28.058594 17.914062 26.421875 19.546875 C 25.386719 20.582031 27 22.1875 28.039062 21.148438 C 29.671875 19.515625 31.304688 17.882812 32.9375 16.25 C 32.9375 17.640625 32.9375 19.03125 32.9375 20.421875 C 32.9375 21.886719 35.210938 21.902344 35.210938 20.4375 C 35.210938 18.128906 35.210938 15.820312 35.210938 13.511719 C 35.210938 12.898438 34.707031 12.367188 34.082031 12.367188 Z M 34.082031 12.367188 "/>
<path style=" stroke:none;fill-rule:nonzero;fill:rgb(100%,100%,100%);fill-opacity:1;" d="M 39.785156 11.519531 C 39.785156 11.390625 39.761719 11.273438 39.730469 11.167969 C 39.320312 8.941406 37.621094 8.210938 35.484375 8.210938 C 33.203125 8.210938 30.917969 8.210938 28.636719 8.210938 C 23.269531 8.210938 17.898438 8.210938 12.53125 8.210938 C 10.292969 8.210938 8.5 8.996094 8.214844 11.503906 C 8.0625 12.789062 8.214844 14.183594 8.214844 15.476562 C 8.214844 21.246094 8.214844 27.015625 8.214844 32.785156 C 8.214844 34.171875 8.109375 35.59375 8.269531 36.972656 C 8.542969 39.34375 10.742188 39.785156 12.683594 39.785156 C 18.113281 39.785156 23.542969 39.785156 28.972656 39.785156 C 31.1875 39.785156 33.40625 39.785156 35.621094 39.785156 C 37.667969 39.785156 39.785156 38.910156 39.785156 36.488281 C 39.785156 32.136719 39.785156 27.789062 39.785156 23.441406 C 39.785156 19.558594 39.785156 15.675781 39.785156 11.792969 C 39.792969 11.707031 39.796875 11.617188 39.785156 11.519531 Z M 36.496094 37.511719 C 35.207031 37.660156 33.816406 37.511719 32.523438 37.511719 C 29.621094 37.511719 26.71875 37.511719 23.820312 37.511719 C 20.949219 37.511719 18.082031 37.511719 15.210938 37.511719 C 14.332031 37.511719 10.675781 38.128906 10.488281 36.496094 C 10.339844 35.207031 10.488281 33.816406 10.488281 32.519531 C 10.488281 29.621094 10.488281 26.71875 10.488281 23.816406 C 10.488281 20.949219 10.488281 18.078125 10.488281 15.210938 C 10.488281 14.332031 9.871094 10.675781 11.503906 10.488281 C 12.792969 10.339844 14.183594 10.488281 15.476562 10.488281 C 18.378906 10.488281 21.28125 10.488281 24.179688 10.488281 C 27.050781 10.488281 29.917969 10.488281 32.789062 10.488281 C 33.667969 10.488281 37.324219 9.867188 37.511719 11.503906 C 37.511719 15.730469 37.511719 19.953125 37.511719 24.179688 C 37.511719 27.046875 37.511719 29.917969 37.511719 32.785156 C 37.511719 33.667969 38.128906 37.320312 36.496094 37.511719 Z M 36.496094 37.511719 "/>
</g>
</svg>
